<mxfile host="app.diagrams.net" modified="2023-02-21T09:59:05.352Z" agent="5.0 (Windows NT 10.0; Win64; x64) AppleWebKit/537.36 (KHTML, like Gecko) Chrome/110.0.0.0 Safari/537.36 Edg/110.0.1587.50" etag="8Ov5NnTqxXp2YVu6LUma" compressed="false" version="20.8.21" type="onedrive">
  <diagram name="第 1 页" id="80CqQ0DkA6c3_NzT39fS">
    <mxGraphModel grid="1" page="1" gridSize="10" guides="1" tooltips="1" connect="1" arrows="1" fold="1" pageScale="1" pageWidth="827" pageHeight="1169" math="0" shadow="0">
      <root>
        <mxCell id="0" />
        <mxCell id="1" parent="0" />
        <mxCell id="yCpGT9WTfoBPf_9TSZSp-4" style="edgeStyle=orthogonalEdgeStyle;rounded=0;orthogonalLoop=1;jettySize=auto;html=1;entryX=0.5;entryY=0;entryDx=0;entryDy=0;fontColor=default;exitX=0.5;exitY=1;exitDx=0;exitDy=0;" edge="1" parent="1" source="yCpGT9WTfoBPf_9TSZSp-1" target="yCpGT9WTfoBPf_9TSZSp-2">
          <mxGeometry relative="1" as="geometry" />
        </mxCell>
        <mxCell id="yCpGT9WTfoBPf_9TSZSp-1" value="START" style="ellipse;whiteSpace=wrap;html=1;fillColor=none;" vertex="1" parent="1">
          <mxGeometry x="144.5" y="60" width="63" height="40" as="geometry" />
        </mxCell>
        <mxCell id="yCpGT9WTfoBPf_9TSZSp-6" value="" style="edgeStyle=orthogonalEdgeStyle;rounded=0;orthogonalLoop=1;jettySize=auto;html=1;fontColor=default;entryX=0.5;entryY=0;entryDx=0;entryDy=0;" edge="1" parent="1" source="yCpGT9WTfoBPf_9TSZSp-2" target="yCpGT9WTfoBPf_9TSZSp-10">
          <mxGeometry relative="1" as="geometry">
            <mxPoint x="176" y="240" as="targetPoint" />
          </mxGeometry>
        </mxCell>
        <mxCell id="yCpGT9WTfoBPf_9TSZSp-2" value="&lt;div style=&quot;line-height: 19px;&quot;&gt;&lt;div style=&quot;&quot;&gt;&lt;div style=&quot;font-family: Consolas, &amp;quot;Courier New&amp;quot;, monospace; font-size: 14px; line-height: 19px;&quot;&gt;&lt;div&gt;double &lt;span style=&quot;&quot;&gt;a3&lt;/span&gt;, &lt;span style=&quot;&quot;&gt;a2&lt;/span&gt;, &lt;span style=&quot;&quot;&gt;a1&lt;/span&gt;, &lt;span style=&quot;&quot;&gt;a0&lt;/span&gt;, &lt;span style=&quot;&quot;&gt;b2&lt;/span&gt;, &lt;span style=&quot;&quot;&gt;b1&lt;/span&gt;, &lt;span style=&quot;&quot;&gt;b0&lt;/span&gt;, &lt;span style=&quot;&quot;&gt;delta&lt;/span&gt;, &lt;span style=&quot;&quot;&gt;x1&lt;/span&gt;, &lt;span style=&quot;&quot;&gt;x2&lt;/span&gt;, &lt;span style=&quot;&quot;&gt;y1&lt;/span&gt;, &lt;span style=&quot;&quot;&gt;y2&lt;/span&gt;, &lt;span style=&quot;&quot;&gt;r&lt;/span&gt;, &lt;span style=&quot;&quot;&gt;s&lt;/span&gt;, &lt;span style=&quot;&quot;&gt;m&lt;/span&gt;, &lt;span style=&quot;&quot;&gt;t&lt;/span&gt;&lt;/div&gt;&lt;div&gt;&lt;span style=&quot;background-color: initial;&quot;&gt;int&lt;/span&gt;&lt;span style=&quot;background-color: initial;&quot;&gt; &lt;/span&gt;&lt;span style=&quot;background-color: initial;&quot;&gt;num_solution&lt;/span&gt;&lt;span style=&quot;background-color: initial;&quot;&gt;;&lt;/span&gt;&lt;/div&gt;&lt;div&gt;&lt;span style=&quot;background-color: initial;&quot;&gt;bool stop;&lt;/span&gt;&lt;/div&gt;&lt;/div&gt;&lt;/div&gt;&lt;/div&gt;" style="whiteSpace=wrap;html=1;fillColor=none;fontColor=default;labelBackgroundColor=none;" vertex="1" parent="1">
          <mxGeometry x="30" y="140" width="292" height="80" as="geometry" />
        </mxCell>
        <mxCell id="yCpGT9WTfoBPf_9TSZSp-16" style="edgeStyle=orthogonalEdgeStyle;rounded=0;orthogonalLoop=1;jettySize=auto;html=1;entryX=0.5;entryY=0;entryDx=0;entryDy=0;fontColor=default;" edge="1" parent="1" source="yCpGT9WTfoBPf_9TSZSp-10" target="yCpGT9WTfoBPf_9TSZSp-15">
          <mxGeometry relative="1" as="geometry" />
        </mxCell>
        <mxCell id="yCpGT9WTfoBPf_9TSZSp-10" value="input a3, a2, a1, a0" style="shape=parallelogram;perimeter=parallelogramPerimeter;whiteSpace=wrap;html=1;fixedSize=1;labelBackgroundColor=none;fontColor=default;fillColor=none;" vertex="1" parent="1">
          <mxGeometry x="102" y="250" width="148" height="30" as="geometry" />
        </mxCell>
        <mxCell id="yCpGT9WTfoBPf_9TSZSp-19" value="True" style="edgeStyle=orthogonalEdgeStyle;rounded=0;orthogonalLoop=1;jettySize=auto;html=1;entryX=0;entryY=0.5;entryDx=0;entryDy=0;fontColor=default;exitX=0;exitY=0.5;exitDx=0;exitDy=0;labelBackgroundColor=default;" edge="1" parent="1" source="yCpGT9WTfoBPf_9TSZSp-15" target="yCpGT9WTfoBPf_9TSZSp-22">
          <mxGeometry x="-0.7694" y="-10" relative="1" as="geometry">
            <mxPoint as="offset" />
            <mxPoint x="112.5" y="360" as="targetPoint" />
            <Array as="points">
              <mxPoint x="100" y="330" />
              <mxPoint x="100" y="485" />
            </Array>
          </mxGeometry>
        </mxCell>
        <mxCell id="yCpGT9WTfoBPf_9TSZSp-21" value="False" style="edgeStyle=orthogonalEdgeStyle;rounded=0;orthogonalLoop=1;jettySize=auto;html=1;entryX=0.5;entryY=0;entryDx=0;entryDy=0;fontColor=default;exitX=1;exitY=0.5;exitDx=0;exitDy=0;labelBackgroundColor=none;" edge="1" parent="1" source="yCpGT9WTfoBPf_9TSZSp-15" target="yCpGT9WTfoBPf_9TSZSp-20">
          <mxGeometry x="-0.3935" y="10" relative="1" as="geometry">
            <mxPoint as="offset" />
          </mxGeometry>
        </mxCell>
        <mxCell id="yCpGT9WTfoBPf_9TSZSp-15" value="a3 != 0" style="rhombus;whiteSpace=wrap;html=1;fillColor=none;labelBackgroundColor=none;fontColor=default;" vertex="1" parent="1">
          <mxGeometry x="143" y="310" width="66" height="40" as="geometry" />
        </mxCell>
        <mxCell id="Vj9ajFiq0jx15E2-Rn8_-92" style="edgeStyle=orthogonalEdgeStyle;rounded=0;orthogonalLoop=1;jettySize=auto;html=1;exitX=0.5;exitY=1;exitDx=0;exitDy=0;entryX=0.5;entryY=0;entryDx=0;entryDy=0;labelBackgroundColor=none;" edge="1" parent="1" source="yCpGT9WTfoBPf_9TSZSp-20" target="Vj9ajFiq0jx15E2-Rn8_-91">
          <mxGeometry relative="1" as="geometry" />
        </mxCell>
        <mxCell id="yCpGT9WTfoBPf_9TSZSp-20" value="output &quot;Invalid input&quot;" style="shape=parallelogram;perimeter=parallelogramPerimeter;whiteSpace=wrap;html=1;fixedSize=1;labelBackgroundColor=none;fontColor=default;fillColor=none;" vertex="1" parent="1">
          <mxGeometry x="182.5" y="380" width="148" height="30" as="geometry" />
        </mxCell>
        <mxCell id="Vj9ajFiq0jx15E2-Rn8_-1" style="edgeStyle=orthogonalEdgeStyle;rounded=0;orthogonalLoop=1;jettySize=auto;html=1;entryX=0.5;entryY=0;entryDx=0;entryDy=0;labelBackgroundColor=none;" edge="1" parent="1" source="yCpGT9WTfoBPf_9TSZSp-22" target="yCpGT9WTfoBPf_9TSZSp-27">
          <mxGeometry relative="1" as="geometry" />
        </mxCell>
        <mxCell id="yCpGT9WTfoBPf_9TSZSp-22" value="" style="ellipse;whiteSpace=wrap;html=1;aspect=fixed;labelBackgroundColor=none;fontColor=default;fillColor=none;" vertex="1" parent="1">
          <mxGeometry x="171.5" y="480" width="10" height="10" as="geometry" />
        </mxCell>
        <mxCell id="yCpGT9WTfoBPf_9TSZSp-30" style="edgeStyle=orthogonalEdgeStyle;rounded=0;orthogonalLoop=1;jettySize=auto;html=1;entryX=0.5;entryY=0;entryDx=0;entryDy=0;fontColor=default;exitX=0.5;exitY=1;exitDx=0;exitDy=0;" edge="1" parent="1" source="yCpGT9WTfoBPf_9TSZSp-27" target="yCpGT9WTfoBPf_9TSZSp-29">
          <mxGeometry relative="1" as="geometry" />
        </mxCell>
        <mxCell id="yCpGT9WTfoBPf_9TSZSp-27" value="&lt;div style=&quot;font-family: Consolas, &amp;quot;Courier New&amp;quot;, monospace; font-size: 14px; line-height: 19px;&quot;&gt;&lt;div&gt;b2 = &lt;span style=&quot;&quot;&gt;3&lt;/span&gt; * &lt;span style=&quot;&quot;&gt;a3&lt;/span&gt;&lt;/div&gt;&lt;div&gt;&lt;span style=&quot;&quot;&gt;b1&lt;/span&gt; = &lt;span style=&quot;&quot;&gt;2&lt;/span&gt; * &lt;span style=&quot;&quot;&gt;a2&lt;/span&gt;&lt;/div&gt;&lt;div&gt;&lt;span style=&quot;&quot;&gt;b0&lt;/span&gt; = &lt;span style=&quot;&quot;&gt;a1&lt;/span&gt;&lt;/div&gt;&lt;div&gt;&lt;div style=&quot;line-height: 19px;&quot;&gt;delta = &lt;span style=&quot;&quot;&gt;pow&lt;/span&gt;(&lt;span style=&quot;&quot;&gt;b1&lt;/span&gt;, &lt;span style=&quot;&quot;&gt;2&lt;/span&gt;) - (&lt;span style=&quot;&quot;&gt;4&lt;/span&gt; * &lt;span style=&quot;&quot;&gt;b2&lt;/span&gt; * &lt;span style=&quot;&quot;&gt;b0&lt;/span&gt;)&lt;/div&gt;&lt;/div&gt;&lt;/div&gt;" style="rounded=0;whiteSpace=wrap;html=1;labelBackgroundColor=none;fontColor=default;fillColor=none;" vertex="1" parent="1">
          <mxGeometry x="30.5" y="520" width="292" height="80" as="geometry" />
        </mxCell>
        <mxCell id="yCpGT9WTfoBPf_9TSZSp-32" value="True" style="edgeStyle=orthogonalEdgeStyle;rounded=0;orthogonalLoop=1;jettySize=auto;html=1;entryX=0.5;entryY=0;entryDx=0;entryDy=0;fontColor=default;exitX=0;exitY=0.5;exitDx=0;exitDy=0;" edge="1" parent="1" source="yCpGT9WTfoBPf_9TSZSp-29" target="yCpGT9WTfoBPf_9TSZSp-31">
          <mxGeometry x="-0.845" y="-15" relative="1" as="geometry">
            <mxPoint as="offset" />
          </mxGeometry>
        </mxCell>
        <mxCell id="yCpGT9WTfoBPf_9TSZSp-34" value="False" style="edgeStyle=orthogonalEdgeStyle;rounded=0;orthogonalLoop=1;jettySize=auto;html=1;entryX=0.5;entryY=0;entryDx=0;entryDy=0;fontColor=default;exitX=1;exitY=0.5;exitDx=0;exitDy=0;" edge="1" parent="1" source="yCpGT9WTfoBPf_9TSZSp-29" target="yCpGT9WTfoBPf_9TSZSp-33">
          <mxGeometry x="-0.381" y="15" relative="1" as="geometry">
            <mxPoint as="offset" />
          </mxGeometry>
        </mxCell>
        <mxCell id="yCpGT9WTfoBPf_9TSZSp-29" value="&lt;div style=&quot;font-family: Consolas, &amp;quot;Courier New&amp;quot;, monospace; font-size: 14px; line-height: 19px;&quot;&gt;delta &amp;lt; &lt;span style=&quot;&quot;&gt;0&lt;/span&gt;&lt;/div&gt;" style="rhombus;whiteSpace=wrap;html=1;labelBackgroundColor=none;fontColor=default;fillColor=none;" vertex="1" parent="1">
          <mxGeometry x="125.5" y="630" width="102" height="50" as="geometry" />
        </mxCell>
        <mxCell id="yCpGT9WTfoBPf_9TSZSp-77" style="edgeStyle=orthogonalEdgeStyle;rounded=0;orthogonalLoop=1;jettySize=auto;html=1;entryX=0;entryY=0.5;entryDx=0;entryDy=0;fontColor=default;exitX=0.5;exitY=1;exitDx=0;exitDy=0;" edge="1" parent="1" source="yCpGT9WTfoBPf_9TSZSp-31" target="yCpGT9WTfoBPf_9TSZSp-75">
          <mxGeometry relative="1" as="geometry" />
        </mxCell>
        <mxCell id="yCpGT9WTfoBPf_9TSZSp-31" value="num_solution = 1" style="rounded=0;whiteSpace=wrap;html=1;labelBackgroundColor=none;fontColor=default;fillColor=none;" vertex="1" parent="1">
          <mxGeometry x="30.5" y="820" width="100" height="30" as="geometry" />
        </mxCell>
        <mxCell id="yCpGT9WTfoBPf_9TSZSp-37" style="edgeStyle=orthogonalEdgeStyle;rounded=0;orthogonalLoop=1;jettySize=auto;html=1;entryX=0.5;entryY=0;entryDx=0;entryDy=0;fontColor=default;exitX=0.5;exitY=1;exitDx=0;exitDy=0;entryPerimeter=0;" edge="1" parent="1" source="yCpGT9WTfoBPf_9TSZSp-33" target="lqvLUBd4j2oRdTS4v0ID-98">
          <mxGeometry relative="1" as="geometry">
            <mxPoint x="307.5" y="840" as="targetPoint" />
            <mxPoint x="307.5" y="810" as="sourcePoint" />
          </mxGeometry>
        </mxCell>
        <mxCell id="yCpGT9WTfoBPf_9TSZSp-33" value="&lt;div&gt;x1 = (-b1 - pow(delta, 0.5)) / (2 * b2)&lt;/div&gt;&lt;div&gt;x2 = (-b1 + pow(delta, 0.5)) / (2 * b2)&lt;/div&gt;&lt;div&gt;y1 = a3 * pow(x1, 3) + a2 * pow(x1, 2) + a1 * x1 + a0&lt;/div&gt;&lt;div&gt;y2 = a3 * pow(x2, 3) + a2 * pow(x2, 2) + a1 * x2 + a0&lt;/div&gt;" style="rounded=0;whiteSpace=wrap;html=1;labelBackgroundColor=none;fontColor=default;fillColor=none;" vertex="1" parent="1">
          <mxGeometry x="202.5" y="700" width="210" height="100" as="geometry" />
        </mxCell>
        <mxCell id="lqvLUBd4j2oRdTS4v0ID-105" style="edgeStyle=orthogonalEdgeStyle;rounded=0;orthogonalLoop=1;jettySize=auto;html=1;exitX=0.5;exitY=1;exitDx=0;exitDy=0;entryX=0.5;entryY=0;entryDx=0;entryDy=0;" edge="1" parent="1" source="yCpGT9WTfoBPf_9TSZSp-75" target="Vj9ajFiq0jx15E2-Rn8_-58">
          <mxGeometry relative="1" as="geometry">
            <mxPoint x="177.5" y="990" as="targetPoint" />
          </mxGeometry>
        </mxCell>
        <mxCell id="yCpGT9WTfoBPf_9TSZSp-75" value="" style="ellipse;whiteSpace=wrap;html=1;aspect=fixed;labelBackgroundColor=none;fontColor=default;fillColor=none;" vertex="1" parent="1">
          <mxGeometry x="172.5" y="950" width="10" height="10" as="geometry" />
        </mxCell>
        <mxCell id="yCpGT9WTfoBPf_9TSZSp-80" value="" style="edgeStyle=orthogonalEdgeStyle;rounded=0;orthogonalLoop=1;jettySize=auto;html=1;fontColor=default;exitX=0.5;exitY=1;exitDx=0;exitDy=0;" edge="1" parent="1" source="Vj9ajFiq0jx15E2-Rn8_-63" target="yCpGT9WTfoBPf_9TSZSp-79">
          <mxGeometry relative="1" as="geometry">
            <mxPoint x="225.89999999999998" y="1289" as="sourcePoint" />
          </mxGeometry>
        </mxCell>
        <mxCell id="yCpGT9WTfoBPf_9TSZSp-82" value="&#xa;&lt;span style=&quot;color: rgb(0, 0, 0); font-family: Consolas, &amp;quot;Courier New&amp;quot;, monospace; font-size: 14px; font-style: normal; font-variant-ligatures: normal; font-variant-caps: normal; font-weight: 400; letter-spacing: normal; orphans: 2; text-align: center; text-indent: 0px; text-transform: none; widows: 2; word-spacing: 0px; -webkit-text-stroke-width: 0px; text-decoration-thickness: initial; text-decoration-style: initial; text-decoration-color: initial; float: none; display: inline !important;&quot;&gt;True&lt;/span&gt;&#xa;&#xa;" style="edgeStyle=orthogonalEdgeStyle;rounded=0;orthogonalLoop=1;jettySize=auto;html=1;entryX=0.5;entryY=0;entryDx=0;entryDy=0;fontColor=default;exitX=0;exitY=0.5;exitDx=0;exitDy=0;labelBackgroundColor=none;" edge="1" parent="1" source="yCpGT9WTfoBPf_9TSZSp-79" target="yCpGT9WTfoBPf_9TSZSp-81">
          <mxGeometry x="-0.3235" y="-1" relative="1" as="geometry">
            <mxPoint x="1" y="-1" as="offset" />
          </mxGeometry>
        </mxCell>
        <mxCell id="yCpGT9WTfoBPf_9TSZSp-146" value="&#xa;&lt;span style=&quot;color: rgb(0, 0, 0); font-family: Consolas, &amp;quot;Courier New&amp;quot;, monospace; font-size: 14px; font-style: normal; font-variant-ligatures: normal; font-variant-caps: normal; font-weight: 400; letter-spacing: normal; orphans: 2; text-align: center; text-indent: 0px; text-transform: none; widows: 2; word-spacing: 0px; -webkit-text-stroke-width: 0px; text-decoration-thickness: initial; text-decoration-style: initial; text-decoration-color: initial; float: none; display: inline !important;&quot;&gt;False&lt;/span&gt;&#xa;&#xa;" style="edgeStyle=orthogonalEdgeStyle;rounded=0;orthogonalLoop=1;jettySize=auto;html=1;fontColor=default;exitX=1;exitY=0.5;exitDx=0;exitDy=0;labelBackgroundColor=none;entryX=1;entryY=0.5;entryDx=0;entryDy=0;" edge="1" parent="1" source="yCpGT9WTfoBPf_9TSZSp-79" target="Vj9ajFiq0jx15E2-Rn8_-74">
          <mxGeometry x="-0.9597" y="-2" relative="1" as="geometry">
            <mxPoint x="190" y="2050" as="targetPoint" />
            <Array as="points">
              <mxPoint x="310" y="1331" />
              <mxPoint x="310" y="2045" />
            </Array>
            <mxPoint x="2" y="-2" as="offset" />
          </mxGeometry>
        </mxCell>
        <mxCell id="yCpGT9WTfoBPf_9TSZSp-79" value="num_solution == 1" style="rhombus;whiteSpace=wrap;html=1;fillColor=none;labelBackgroundColor=none;" vertex="1" parent="1">
          <mxGeometry x="158.9" y="1309" width="134" height="45" as="geometry" />
        </mxCell>
        <mxCell id="yCpGT9WTfoBPf_9TSZSp-88" style="edgeStyle=orthogonalEdgeStyle;rounded=0;orthogonalLoop=1;jettySize=auto;html=1;entryX=0.5;entryY=0;entryDx=0;entryDy=0;fontColor=default;" edge="1" parent="1" source="yCpGT9WTfoBPf_9TSZSp-81" target="yCpGT9WTfoBPf_9TSZSp-83">
          <mxGeometry relative="1" as="geometry" />
        </mxCell>
        <mxCell id="yCpGT9WTfoBPf_9TSZSp-81" value="s = 1" style="rounded=0;whiteSpace=wrap;html=1;labelBackgroundColor=none;fontColor=default;fillColor=none;" vertex="1" parent="1">
          <mxGeometry x="124.9" y="1354" width="45" height="25" as="geometry" />
        </mxCell>
        <mxCell id="yCpGT9WTfoBPf_9TSZSp-85" value="&#xa;&lt;span style=&quot;color: rgb(0, 0, 0); font-family: Consolas, &amp;quot;Courier New&amp;quot;, monospace; font-size: 14px; font-style: normal; font-variant-ligatures: normal; font-variant-caps: normal; font-weight: 400; letter-spacing: normal; orphans: 2; text-align: center; text-indent: 0px; text-transform: none; widows: 2; word-spacing: 0px; -webkit-text-stroke-width: 0px; text-decoration-thickness: initial; text-decoration-style: initial; text-decoration-color: initial; float: none; display: inline !important;&quot;&gt;True&lt;/span&gt;&#xa;&#xa;" style="edgeStyle=orthogonalEdgeStyle;rounded=0;orthogonalLoop=1;jettySize=auto;html=1;entryX=0.5;entryY=0;entryDx=0;entryDy=0;fontColor=default;labelBackgroundColor=none;" edge="1" parent="1" source="yCpGT9WTfoBPf_9TSZSp-83" target="yCpGT9WTfoBPf_9TSZSp-84">
          <mxGeometry x="-0.0938" y="-23" relative="1" as="geometry">
            <mxPoint as="offset" />
          </mxGeometry>
        </mxCell>
        <mxCell id="yCpGT9WTfoBPf_9TSZSp-101" value="&#xa;&lt;span style=&quot;color: rgb(0, 0, 0); font-family: Consolas, &amp;quot;Courier New&amp;quot;, monospace; font-size: 14px; font-style: normal; font-variant-ligatures: normal; font-variant-caps: normal; font-weight: 400; letter-spacing: normal; orphans: 2; text-align: center; text-indent: 0px; text-transform: none; widows: 2; word-spacing: 0px; -webkit-text-stroke-width: 0px; text-decoration-thickness: initial; text-decoration-style: initial; text-decoration-color: initial; float: none; display: inline !important;&quot;&gt;False&lt;/span&gt;&#xa;&#xa;" style="edgeStyle=orthogonalEdgeStyle;rounded=0;orthogonalLoop=1;jettySize=auto;html=1;entryX=0.5;entryY=0;entryDx=0;entryDy=0;fontColor=default;exitX=1;exitY=0.5;exitDx=0;exitDy=0;labelBackgroundColor=none;" edge="1" parent="1" source="yCpGT9WTfoBPf_9TSZSp-83">
          <mxGeometry x="-0.8688" y="5" relative="1" as="geometry">
            <Array as="points">
              <mxPoint x="274.9" y="1462" />
              <mxPoint x="274.9" y="1599" />
              <mxPoint x="146.9" y="1599" />
            </Array>
            <mxPoint y="-2" as="offset" />
            <mxPoint x="147.39999999999998" y="1619" as="targetPoint" />
          </mxGeometry>
        </mxCell>
        <mxCell id="yCpGT9WTfoBPf_9TSZSp-83" value="&lt;div style=&quot;font-family: Consolas, &amp;quot;Courier New&amp;quot;, monospace; font-size: 14px; line-height: 19px;&quot;&gt;a3*&lt;span style=&quot;&quot;&gt;pow&lt;/span&gt;(&lt;span style=&quot;&quot;&gt;s&lt;/span&gt;, &lt;span style=&quot;&quot;&gt;3&lt;/span&gt;)&lt;/div&gt;&lt;div style=&quot;font-family: Consolas, &amp;quot;Courier New&amp;quot;, monospace; font-size: 14px; line-height: 19px;&quot;&gt;+&amp;nbsp;&lt;span style=&quot;background-color: initial;&quot;&gt;a2&lt;/span&gt;&lt;span style=&quot;background-color: initial;&quot;&gt;*&lt;/span&gt;&lt;span style=&quot;background-color: initial;&quot;&gt;pow&lt;/span&gt;&lt;span style=&quot;background-color: initial;&quot;&gt;(&lt;/span&gt;&lt;span style=&quot;background-color: initial;&quot;&gt;s&lt;/span&gt;&lt;span style=&quot;background-color: initial;&quot;&gt;, &lt;/span&gt;&lt;span style=&quot;background-color: initial;&quot;&gt;2&lt;/span&gt;&lt;span style=&quot;background-color: initial;&quot;&gt;)&lt;/span&gt;&lt;/div&gt;&lt;div style=&quot;font-family: Consolas, &amp;quot;Courier New&amp;quot;, monospace; font-size: 14px; line-height: 19px;&quot;&gt;&lt;span style=&quot;background-color: initial;&quot;&gt;+ &lt;/span&gt;&lt;span style=&quot;background-color: initial;&quot;&gt;a1&lt;/span&gt;&lt;span style=&quot;background-color: initial;&quot;&gt;*&lt;/span&gt;&lt;span style=&quot;background-color: initial;&quot;&gt;s&lt;/span&gt;&lt;/div&gt;&lt;div style=&quot;font-family: Consolas, &amp;quot;Courier New&amp;quot;, monospace; font-size: 14px; line-height: 19px;&quot;&gt;+ &lt;span style=&quot;&quot;&gt;a0&lt;/span&gt; &amp;lt;= &lt;span style=&quot;&quot;&gt;0&lt;/span&gt;&lt;/div&gt;" style="rhombus;whiteSpace=wrap;html=1;fillColor=none;labelBackgroundColor=none;fontColor=default;" vertex="1" parent="1">
          <mxGeometry x="39.9" y="1399" width="215" height="125" as="geometry" />
        </mxCell>
        <mxCell id="yCpGT9WTfoBPf_9TSZSp-87" style="edgeStyle=orthogonalEdgeStyle;rounded=0;orthogonalLoop=1;jettySize=auto;html=1;entryX=0;entryY=0.5;entryDx=0;entryDy=0;fontColor=default;exitX=0.5;exitY=1;exitDx=0;exitDy=0;" edge="1" parent="1" source="yCpGT9WTfoBPf_9TSZSp-84" target="yCpGT9WTfoBPf_9TSZSp-83">
          <mxGeometry relative="1" as="geometry">
            <Array as="points">
              <mxPoint x="146.9" y="1589" />
              <mxPoint x="19.9" y="1589" />
              <mxPoint x="19.9" y="1462" />
            </Array>
          </mxGeometry>
        </mxCell>
        <mxCell id="yCpGT9WTfoBPf_9TSZSp-84" value="&lt;div style=&quot;font-family: Consolas, &amp;quot;Courier New&amp;quot;, monospace; font-size: 14px; line-height: 19px;&quot;&gt;s *= &lt;span style=&quot;&quot;&gt;2&lt;/span&gt;&lt;/div&gt;" style="whiteSpace=wrap;html=1;fillColor=none;labelBackgroundColor=none;fontColor=default;" vertex="1" parent="1">
          <mxGeometry x="121.15" y="1551" width="52.5" height="20" as="geometry" />
        </mxCell>
        <mxCell id="lqvLUBd4j2oRdTS4v0ID-98" value="A" style="verticalLabelPosition=middle;verticalAlign=middle;html=1;shape=mxgraph.flowchart.on-page_reference;fillColor=none;labelPosition=center;align=center;" vertex="1" parent="1">
          <mxGeometry x="287.5" y="840" width="40" height="40" as="geometry" />
        </mxCell>
        <mxCell id="lqvLUBd4j2oRdTS4v0ID-100" style="edgeStyle=orthogonalEdgeStyle;rounded=0;orthogonalLoop=1;jettySize=auto;html=1;entryX=1;entryY=0.5;entryDx=0;entryDy=0;exitX=0.5;exitY=1;exitDx=0;exitDy=0;exitPerimeter=0;" edge="1" parent="1" source="lqvLUBd4j2oRdTS4v0ID-99" target="yCpGT9WTfoBPf_9TSZSp-75">
          <mxGeometry relative="1" as="geometry" />
        </mxCell>
        <mxCell id="lqvLUBd4j2oRdTS4v0ID-99" value="B" style="verticalLabelPosition=middle;verticalAlign=middle;html=1;shape=mxgraph.flowchart.on-page_reference;fillColor=none;labelPosition=center;align=center;" vertex="1" parent="1">
          <mxGeometry x="287.5" y="890" width="40" height="40" as="geometry" />
        </mxCell>
        <mxCell id="lqvLUBd4j2oRdTS4v0ID-110" style="edgeStyle=orthogonalEdgeStyle;rounded=0;orthogonalLoop=1;jettySize=auto;html=1;entryX=0.5;entryY=0;entryDx=0;entryDy=0;fontColor=default;" edge="1" parent="1" source="lqvLUBd4j2oRdTS4v0ID-111">
          <mxGeometry relative="1" as="geometry">
            <mxPoint x="521.5" y="1615" as="targetPoint" />
          </mxGeometry>
        </mxCell>
        <mxCell id="lqvLUBd4j2oRdTS4v0ID-111" value="&lt;div style=&quot;font-family: Consolas, &amp;quot;Courier New&amp;quot;, monospace; font-size: 14px; line-height: 19px;&quot;&gt;&lt;div style=&quot;line-height: 19px;&quot;&gt;m = (&lt;span style=&quot;&quot;&gt;r&lt;/span&gt; + &lt;span style=&quot;&quot;&gt;s&lt;/span&gt;) / &lt;span style=&quot;&quot;&gt;2&lt;/span&gt;&lt;/div&gt;&lt;div style=&quot;line-height: 19px;&quot;&gt;double y_m&lt;/div&gt;&lt;div style=&quot;line-height: 19px;&quot;&gt;y_m = a3&lt;span style=&quot;&quot;&gt;*&lt;/span&gt;&lt;span style=&quot;&quot;&gt;pow&lt;/span&gt;&lt;span style=&quot;&quot;&gt;(&lt;/span&gt;&lt;span style=&quot;&quot;&gt;m&lt;/span&gt;&lt;span style=&quot;&quot;&gt;,&lt;/span&gt;&lt;span style=&quot;&quot;&gt;3&lt;/span&gt;&lt;span style=&quot;&quot;&gt;)&amp;nbsp;&lt;/span&gt;&lt;span style=&quot;background-color: initial;&quot;&gt;+&amp;nbsp;&lt;/span&gt;&lt;span style=&quot;background-color: initial;&quot;&gt;a2&lt;/span&gt;&lt;span style=&quot;background-color: initial;&quot;&gt;*&lt;/span&gt;&lt;span style=&quot;background-color: initial;&quot;&gt;pow&lt;/span&gt;&lt;span style=&quot;background-color: initial;&quot;&gt;(&lt;/span&gt;&lt;span style=&quot;background-color: initial;&quot;&gt;m&lt;/span&gt;&lt;span style=&quot;background-color: initial;&quot;&gt;,&lt;/span&gt;&lt;span style=&quot;background-color: initial;&quot;&gt;2&lt;/span&gt;&lt;span style=&quot;background-color: initial;&quot;&gt;) + &lt;/span&gt;&lt;span style=&quot;background-color: initial;&quot;&gt;a1&lt;/span&gt;&lt;span style=&quot;background-color: initial;&quot;&gt;*&lt;/span&gt;&lt;span style=&quot;background-color: initial;&quot;&gt;m&lt;/span&gt;&lt;span style=&quot;background-color: initial;&quot;&gt; + &lt;/span&gt;&lt;span style=&quot;background-color: initial;&quot;&gt;a0&lt;/span&gt;&lt;/div&gt;&lt;/div&gt;" style="whiteSpace=wrap;html=1;fillColor=none;labelBackgroundColor=none;fontColor=default;" vertex="1" parent="1">
          <mxGeometry x="395.75" y="1510" width="251.5" height="80" as="geometry" />
        </mxCell>
        <mxCell id="lqvLUBd4j2oRdTS4v0ID-112" value="&#xa;&lt;span style=&quot;color: rgb(0, 0, 0); font-family: Consolas, &amp;quot;Courier New&amp;quot;, monospace; font-size: 14px; font-style: normal; font-variant-ligatures: normal; font-variant-caps: normal; font-weight: 400; letter-spacing: normal; orphans: 2; text-align: center; text-indent: 0px; text-transform: none; widows: 2; word-spacing: 0px; -webkit-text-stroke-width: 0px; text-decoration-thickness: initial; text-decoration-style: initial; text-decoration-color: initial; float: none; display: inline !important;&quot;&gt;True&lt;/span&gt;&#xa;&#xa;" style="edgeStyle=orthogonalEdgeStyle;rounded=0;orthogonalLoop=1;jettySize=auto;html=1;fontColor=default;entryX=0.5;entryY=0;entryDx=0;entryDy=0;exitX=0;exitY=0.5;exitDx=0;exitDy=0;labelBackgroundColor=none;" edge="1" parent="1" source="lqvLUBd4j2oRdTS4v0ID-114" target="lqvLUBd4j2oRdTS4v0ID-116">
          <mxGeometry x="-0.6291" y="-10" relative="1" as="geometry">
            <mxPoint as="offset" />
          </mxGeometry>
        </mxCell>
        <mxCell id="lqvLUBd4j2oRdTS4v0ID-113" value="&#xa;&lt;span style=&quot;color: rgb(0, 0, 0); font-family: Consolas, &amp;quot;Courier New&amp;quot;, monospace; font-size: 14px; font-style: normal; font-variant-ligatures: normal; font-variant-caps: normal; font-weight: 400; letter-spacing: normal; orphans: 2; text-align: center; text-indent: 0px; text-transform: none; widows: 2; word-spacing: 0px; -webkit-text-stroke-width: 0px; text-decoration-thickness: initial; text-decoration-style: initial; text-decoration-color: initial; float: none; display: inline !important;&quot;&gt;False&lt;/span&gt;&#xa;&#xa;" style="edgeStyle=orthogonalEdgeStyle;rounded=0;orthogonalLoop=1;jettySize=auto;html=1;entryX=0.5;entryY=0;entryDx=0;entryDy=0;fontColor=default;exitX=1;exitY=0.5;exitDx=0;exitDy=0;labelBackgroundColor=none;" edge="1" parent="1" source="lqvLUBd4j2oRdTS4v0ID-114" target="lqvLUBd4j2oRdTS4v0ID-123">
          <mxGeometry x="-0.4894" y="-10" relative="1" as="geometry">
            <mxPoint x="10" y="-10" as="offset" />
          </mxGeometry>
        </mxCell>
        <mxCell id="lqvLUBd4j2oRdTS4v0ID-114" value="&lt;div style=&quot;font-family: Consolas, &amp;quot;Courier New&amp;quot;, monospace; font-size: 14px; line-height: 19px;&quot;&gt;&lt;div style=&quot;line-height: 19px;&quot;&gt;y_m == &lt;span style=&quot;&quot;&gt;0&lt;/span&gt; ||&lt;/div&gt;&lt;div style=&quot;line-height: 19px;&quot;&gt;&lt;span style=&quot;&quot;&gt;abs&lt;/span&gt;(&lt;span style=&quot;&quot;&gt;s&lt;/span&gt;-&lt;span style=&quot;&quot;&gt;r&lt;/span&gt;)&amp;lt;&lt;span style=&quot;&quot;&gt;0.000001&lt;/span&gt;&lt;/div&gt;&lt;/div&gt;" style="rhombus;whiteSpace=wrap;html=1;fillColor=none;labelBackgroundColor=none;fontColor=default;" vertex="1" parent="1">
          <mxGeometry x="404" y="1615" width="235" height="90" as="geometry" />
        </mxCell>
        <mxCell id="lqvLUBd4j2oRdTS4v0ID-115" style="edgeStyle=orthogonalEdgeStyle;rounded=0;orthogonalLoop=1;jettySize=auto;html=1;entryX=0.5;entryY=0;entryDx=0;entryDy=0;fontColor=default;exitX=0.5;exitY=1;exitDx=0;exitDy=0;" edge="1" parent="1" source="lqvLUBd4j2oRdTS4v0ID-116" target="lqvLUBd4j2oRdTS4v0ID-118">
          <mxGeometry relative="1" as="geometry" />
        </mxCell>
        <mxCell id="lqvLUBd4j2oRdTS4v0ID-116" value="t = m" style="whiteSpace=wrap;html=1;fillColor=none;labelBackgroundColor=none;" vertex="1" parent="1">
          <mxGeometry x="353.5" y="1720" width="50" height="20" as="geometry" />
        </mxCell>
        <mxCell id="lqvLUBd4j2oRdTS4v0ID-117" value="" style="edgeStyle=orthogonalEdgeStyle;rounded=0;orthogonalLoop=1;jettySize=auto;html=1;fontColor=default;exitX=0.5;exitY=1;exitDx=0;exitDy=0;" edge="1" parent="1" source="lqvLUBd4j2oRdTS4v0ID-118" target="lqvLUBd4j2oRdTS4v0ID-120">
          <mxGeometry relative="1" as="geometry" />
        </mxCell>
        <mxCell id="lqvLUBd4j2oRdTS4v0ID-118" value="output t" style="shape=parallelogram;perimeter=parallelogramPerimeter;whiteSpace=wrap;html=1;fixedSize=1;labelBackgroundColor=none;fontColor=default;fillColor=none;" vertex="1" parent="1">
          <mxGeometry x="336" y="1765" width="85" height="30" as="geometry" />
        </mxCell>
        <mxCell id="lqvLUBd4j2oRdTS4v0ID-119" style="edgeStyle=orthogonalEdgeStyle;rounded=0;orthogonalLoop=1;jettySize=auto;html=1;entryX=0;entryY=0.5;entryDx=0;entryDy=0;fontColor=default;exitX=0.5;exitY=1;exitDx=0;exitDy=0;" edge="1" parent="1" source="lqvLUBd4j2oRdTS4v0ID-120" target="lqvLUBd4j2oRdTS4v0ID-135">
          <mxGeometry relative="1" as="geometry" />
        </mxCell>
        <mxCell id="lqvLUBd4j2oRdTS4v0ID-120" value="stop = true" style="whiteSpace=wrap;html=1;fillColor=none;labelBackgroundColor=none;" vertex="1" parent="1">
          <mxGeometry x="338.5" y="1820" width="80" height="20" as="geometry" />
        </mxCell>
        <mxCell id="lqvLUBd4j2oRdTS4v0ID-121" value="&lt;span style=&quot;color: rgb(0, 0, 0); font-family: Consolas, &amp;quot;Courier New&amp;quot;, monospace; font-size: 14px; font-style: normal; font-variant-ligatures: normal; font-variant-caps: normal; font-weight: 400; letter-spacing: normal; orphans: 2; text-align: center; text-indent: 0px; text-transform: none; widows: 2; word-spacing: 0px; -webkit-text-stroke-width: 0px; text-decoration-thickness: initial; text-decoration-style: initial; text-decoration-color: initial; float: none; display: inline !important;&quot;&gt;True&lt;/span&gt;" style="edgeStyle=orthogonalEdgeStyle;rounded=0;orthogonalLoop=1;jettySize=auto;html=1;entryX=0.5;entryY=0;entryDx=0;entryDy=0;fontColor=default;exitX=0;exitY=0.5;exitDx=0;exitDy=0;labelBackgroundColor=none;" edge="1" parent="1" source="lqvLUBd4j2oRdTS4v0ID-123" target="lqvLUBd4j2oRdTS4v0ID-125">
          <mxGeometry x="0.0002" y="-10" relative="1" as="geometry">
            <mxPoint x="10" y="-10" as="offset" />
          </mxGeometry>
        </mxCell>
        <mxCell id="lqvLUBd4j2oRdTS4v0ID-122" value="&lt;span style=&quot;color: rgb(0, 0, 0); font-family: Consolas, &amp;quot;Courier New&amp;quot;, monospace; font-size: 14px; font-style: normal; font-variant-ligatures: normal; font-variant-caps: normal; font-weight: 400; letter-spacing: normal; orphans: 2; text-align: center; text-indent: 0px; text-transform: none; widows: 2; word-spacing: 0px; -webkit-text-stroke-width: 0px; text-decoration-thickness: initial; text-decoration-style: initial; text-decoration-color: initial; float: none; display: inline !important;&quot;&gt;False&lt;/span&gt;" style="edgeStyle=orthogonalEdgeStyle;rounded=0;orthogonalLoop=1;jettySize=auto;html=1;entryX=0.5;entryY=0;entryDx=0;entryDy=0;fontColor=default;exitX=1;exitY=0.5;exitDx=0;exitDy=0;labelBackgroundColor=none;" edge="1" parent="1" source="lqvLUBd4j2oRdTS4v0ID-123" target="lqvLUBd4j2oRdTS4v0ID-128">
          <mxGeometry x="-0.1769" y="10" relative="1" as="geometry">
            <mxPoint x="-10" y="-10" as="offset" />
          </mxGeometry>
        </mxCell>
        <mxCell id="lqvLUBd4j2oRdTS4v0ID-123" value="&lt;div style=&quot;font-family: Consolas, &amp;quot;Courier New&amp;quot;, monospace; font-size: 14px; line-height: 19px;&quot;&gt;&lt;div style=&quot;line-height: 19px;&quot;&gt;y_m &amp;gt; 0&lt;/div&gt;&lt;/div&gt;" style="rhombus;whiteSpace=wrap;html=1;fillColor=none;labelBackgroundColor=none;fontColor=default;" vertex="1" parent="1">
          <mxGeometry x="603.5" y="1695" width="95" height="50" as="geometry" />
        </mxCell>
        <mxCell id="lqvLUBd4j2oRdTS4v0ID-124" style="edgeStyle=orthogonalEdgeStyle;rounded=0;orthogonalLoop=1;jettySize=auto;html=1;entryX=0;entryY=0.5;entryDx=0;entryDy=0;fontColor=default;exitX=0.5;exitY=1;exitDx=0;exitDy=0;" edge="1" parent="1" source="lqvLUBd4j2oRdTS4v0ID-125" target="lqvLUBd4j2oRdTS4v0ID-134">
          <mxGeometry relative="1" as="geometry" />
        </mxCell>
        <mxCell id="lqvLUBd4j2oRdTS4v0ID-125" value="s = m" style="whiteSpace=wrap;html=1;fillColor=none;labelBackgroundColor=none;" vertex="1" parent="1">
          <mxGeometry x="553.5" y="1745" width="50" height="20" as="geometry" />
        </mxCell>
        <mxCell id="lqvLUBd4j2oRdTS4v0ID-126" value="&#xa;&lt;span style=&quot;color: rgb(0, 0, 0); font-family: Consolas, &amp;quot;Courier New&amp;quot;, monospace; font-size: 14px; font-style: normal; font-variant-ligatures: normal; font-variant-caps: normal; font-weight: 400; letter-spacing: normal; orphans: 2; text-align: center; text-indent: 0px; text-transform: none; widows: 2; word-spacing: 0px; -webkit-text-stroke-width: 0px; text-decoration-thickness: initial; text-decoration-style: initial; text-decoration-color: initial; float: none; display: inline !important;&quot;&gt;True&lt;/span&gt;&#xa;&#xa;" style="edgeStyle=orthogonalEdgeStyle;rounded=0;orthogonalLoop=1;jettySize=auto;html=1;entryX=0.5;entryY=0;entryDx=0;entryDy=0;fontColor=default;exitX=0;exitY=0.5;exitDx=0;exitDy=0;labelBackgroundColor=none;" edge="1" parent="1" source="lqvLUBd4j2oRdTS4v0ID-128" target="lqvLUBd4j2oRdTS4v0ID-130">
          <mxGeometry relative="1" as="geometry" />
        </mxCell>
        <mxCell id="lqvLUBd4j2oRdTS4v0ID-127" value="&#xa;&lt;span style=&quot;color: rgb(0, 0, 0); font-family: Consolas, &amp;quot;Courier New&amp;quot;, monospace; font-size: 14px; font-style: normal; font-variant-ligatures: normal; font-variant-caps: normal; font-weight: 400; letter-spacing: normal; orphans: 2; text-align: center; text-indent: 0px; text-transform: none; widows: 2; word-spacing: 0px; -webkit-text-stroke-width: 0px; text-decoration-thickness: initial; text-decoration-style: initial; text-decoration-color: initial; float: none; display: inline !important;&quot;&gt;False&lt;/span&gt;&#xa;&#xa;" style="edgeStyle=orthogonalEdgeStyle;rounded=0;orthogonalLoop=1;jettySize=auto;html=1;entryX=1;entryY=0.5;entryDx=0;entryDy=0;fontColor=default;exitX=1;exitY=0.5;exitDx=0;exitDy=0;labelBackgroundColor=none;" edge="1" parent="1" source="lqvLUBd4j2oRdTS4v0ID-128" target="lqvLUBd4j2oRdTS4v0ID-132">
          <mxGeometry x="-0.8362" y="10" relative="1" as="geometry">
            <mxPoint as="offset" />
          </mxGeometry>
        </mxCell>
        <mxCell id="lqvLUBd4j2oRdTS4v0ID-128" value="&lt;div style=&quot;font-family: Consolas, &amp;quot;Courier New&amp;quot;, monospace; font-size: 14px; line-height: 19px;&quot;&gt;&lt;div style=&quot;line-height: 19px;&quot;&gt;y_m &amp;lt; 0&lt;/div&gt;&lt;/div&gt;" style="rhombus;whiteSpace=wrap;html=1;fillColor=none;labelBackgroundColor=none;fontColor=default;" vertex="1" parent="1">
          <mxGeometry x="668.5" y="1745" width="95" height="50" as="geometry" />
        </mxCell>
        <mxCell id="lqvLUBd4j2oRdTS4v0ID-129" style="edgeStyle=orthogonalEdgeStyle;rounded=0;orthogonalLoop=1;jettySize=auto;html=1;entryX=0;entryY=0.5;entryDx=0;entryDy=0;fontColor=default;exitX=0.5;exitY=1;exitDx=0;exitDy=0;" edge="1" parent="1" source="lqvLUBd4j2oRdTS4v0ID-130" target="lqvLUBd4j2oRdTS4v0ID-132">
          <mxGeometry relative="1" as="geometry" />
        </mxCell>
        <mxCell id="lqvLUBd4j2oRdTS4v0ID-130" value="r = m" style="whiteSpace=wrap;html=1;fillColor=none;labelBackgroundColor=none;" vertex="1" parent="1">
          <mxGeometry x="618.5" y="1795" width="50" height="20" as="geometry" />
        </mxCell>
        <mxCell id="lqvLUBd4j2oRdTS4v0ID-131" style="edgeStyle=orthogonalEdgeStyle;rounded=0;orthogonalLoop=1;jettySize=auto;html=1;entryX=1;entryY=0.5;entryDx=0;entryDy=0;fontColor=default;exitX=0.5;exitY=1;exitDx=0;exitDy=0;" edge="1" parent="1" source="lqvLUBd4j2oRdTS4v0ID-132" target="lqvLUBd4j2oRdTS4v0ID-134">
          <mxGeometry relative="1" as="geometry" />
        </mxCell>
        <mxCell id="lqvLUBd4j2oRdTS4v0ID-132" value="" style="ellipse;whiteSpace=wrap;html=1;aspect=fixed;labelBackgroundColor=none;fontColor=default;fillColor=none;" vertex="1" parent="1">
          <mxGeometry x="711" y="1835" width="10" height="10" as="geometry" />
        </mxCell>
        <mxCell id="lqvLUBd4j2oRdTS4v0ID-133" style="edgeStyle=orthogonalEdgeStyle;rounded=0;orthogonalLoop=1;jettySize=auto;html=1;entryX=1;entryY=0.5;entryDx=0;entryDy=0;fontColor=default;exitX=0.5;exitY=1;exitDx=0;exitDy=0;" edge="1" parent="1" source="lqvLUBd4j2oRdTS4v0ID-134" target="lqvLUBd4j2oRdTS4v0ID-135">
          <mxGeometry relative="1" as="geometry" />
        </mxCell>
        <mxCell id="lqvLUBd4j2oRdTS4v0ID-134" value="" style="ellipse;whiteSpace=wrap;html=1;aspect=fixed;labelBackgroundColor=none;fontColor=default;fillColor=none;" vertex="1" parent="1">
          <mxGeometry x="646" y="1860" width="10" height="10" as="geometry" />
        </mxCell>
        <mxCell id="Vj9ajFiq0jx15E2-Rn8_-83" style="edgeStyle=orthogonalEdgeStyle;rounded=0;orthogonalLoop=1;jettySize=auto;html=1;exitX=0.5;exitY=1;exitDx=0;exitDy=0;entryX=0;entryY=0.5;entryDx=0;entryDy=0;labelBackgroundColor=none;" edge="1" parent="1" source="lqvLUBd4j2oRdTS4v0ID-135" target="Vj9ajFiq0jx15E2-Rn8_-68">
          <mxGeometry relative="1" as="geometry">
            <Array as="points">
              <mxPoint x="522" y="1915" />
              <mxPoint x="330" y="1915" />
              <mxPoint x="330" y="1453" />
            </Array>
          </mxGeometry>
        </mxCell>
        <mxCell id="lqvLUBd4j2oRdTS4v0ID-135" value="" style="ellipse;whiteSpace=wrap;html=1;aspect=fixed;labelBackgroundColor=none;fontColor=default;fillColor=none;" vertex="1" parent="1">
          <mxGeometry x="516.5" y="1885" width="10" height="10" as="geometry" />
        </mxCell>
        <mxCell id="Vj9ajFiq0jx15E2-Rn8_-71" value="True" style="edgeStyle=orthogonalEdgeStyle;rounded=0;orthogonalLoop=1;jettySize=auto;html=1;exitX=0.5;exitY=1;exitDx=0;exitDy=0;entryX=0.5;entryY=0;entryDx=0;entryDy=0;labelBackgroundColor=none;" edge="1" parent="1" source="lqvLUBd4j2oRdTS4v0ID-142" target="lqvLUBd4j2oRdTS4v0ID-144">
          <mxGeometry x="-0.3333" y="13" relative="1" as="geometry">
            <mxPoint as="offset" />
          </mxGeometry>
        </mxCell>
        <mxCell id="Vj9ajFiq0jx15E2-Rn8_-78" value="False" style="edgeStyle=orthogonalEdgeStyle;rounded=0;orthogonalLoop=1;jettySize=auto;html=1;exitX=1;exitY=0.5;exitDx=0;exitDy=0;entryX=0.5;entryY=0;entryDx=0;entryDy=0;entryPerimeter=0;labelBackgroundColor=none;" edge="1" parent="1" source="lqvLUBd4j2oRdTS4v0ID-142" target="lqvLUBd4j2oRdTS4v0ID-149">
          <mxGeometry x="-0.8976" y="12" relative="1" as="geometry">
            <Array as="points">
              <mxPoint x="274" y="1737" />
              <mxPoint x="274" y="1890" />
              <mxPoint x="147" y="1890" />
            </Array>
            <mxPoint as="offset" />
          </mxGeometry>
        </mxCell>
        <mxCell id="lqvLUBd4j2oRdTS4v0ID-142" value="&lt;div style=&quot;font-family: Consolas, &amp;quot;Courier New&amp;quot;, monospace; font-size: 14px; line-height: 19px;&quot;&gt;a3*&lt;span style=&quot;&quot;&gt;pow&lt;/span&gt;(r, &lt;span style=&quot;&quot;&gt;3&lt;/span&gt;)&lt;/div&gt;&lt;div style=&quot;font-family: Consolas, &amp;quot;Courier New&amp;quot;, monospace; font-size: 14px; line-height: 19px;&quot;&gt;&lt;span style=&quot;background-color: initial;&quot;&gt;+&amp;nbsp;&lt;/span&gt;&lt;span style=&quot;background-color: initial;&quot;&gt;a2&lt;/span&gt;&lt;span style=&quot;background-color: initial;&quot;&gt;*&lt;/span&gt;&lt;span style=&quot;background-color: initial;&quot;&gt;pow&lt;/span&gt;&lt;span style=&quot;background-color: initial;&quot;&gt;(r&lt;/span&gt;&lt;span style=&quot;background-color: initial;&quot;&gt;, &lt;/span&gt;&lt;span style=&quot;background-color: initial;&quot;&gt;2&lt;/span&gt;&lt;span style=&quot;background-color: initial;&quot;&gt;)&lt;/span&gt;&lt;/div&gt;&lt;div style=&quot;font-family: Consolas, &amp;quot;Courier New&amp;quot;, monospace; font-size: 14px; line-height: 19px;&quot;&gt;&lt;span style=&quot;background-color: initial;&quot;&gt;+ &lt;/span&gt;&lt;span style=&quot;background-color: initial;&quot;&gt;a1&lt;/span&gt;&lt;span style=&quot;background-color: initial;&quot;&gt;*r&lt;/span&gt;&lt;/div&gt;&lt;div style=&quot;font-family: Consolas, &amp;quot;Courier New&amp;quot;, monospace; font-size: 14px; line-height: 19px;&quot;&gt;&lt;span style=&quot;background-color: initial;&quot;&gt;+ &lt;/span&gt;&lt;span style=&quot;background-color: initial;&quot;&gt;a0&lt;/span&gt;&lt;span style=&quot;background-color: initial;&quot;&gt;&amp;nbsp;&amp;gt;= &lt;/span&gt;&lt;span style=&quot;background-color: initial;&quot;&gt;0&lt;/span&gt;&lt;/div&gt;" style="rhombus;whiteSpace=wrap;html=1;fillColor=none;labelBackgroundColor=none;fontColor=default;" vertex="1" parent="1">
          <mxGeometry x="40" y="1674" width="213.86" height="126" as="geometry" />
        </mxCell>
        <mxCell id="Vj9ajFiq0jx15E2-Rn8_-72" style="edgeStyle=orthogonalEdgeStyle;rounded=0;orthogonalLoop=1;jettySize=auto;html=1;exitX=0.5;exitY=1;exitDx=0;exitDy=0;entryX=0;entryY=0.5;entryDx=0;entryDy=0;labelBackgroundColor=none;" edge="1" parent="1" source="lqvLUBd4j2oRdTS4v0ID-144" target="lqvLUBd4j2oRdTS4v0ID-142">
          <mxGeometry relative="1" as="geometry" />
        </mxCell>
        <mxCell id="lqvLUBd4j2oRdTS4v0ID-144" value="&lt;div style=&quot;font-family: Consolas, &amp;quot;Courier New&amp;quot;, monospace; font-size: 14px; line-height: 19px;&quot;&gt;r *= &lt;span style=&quot;&quot;&gt;2&lt;/span&gt;&lt;/div&gt;" style="whiteSpace=wrap;html=1;fillColor=none;labelBackgroundColor=none;fontColor=default;" vertex="1" parent="1">
          <mxGeometry x="120.68" y="1840" width="52.5" height="20" as="geometry" />
        </mxCell>
        <mxCell id="lqvLUBd4j2oRdTS4v0ID-149" value="C" style="verticalLabelPosition=middle;verticalAlign=middle;html=1;shape=mxgraph.flowchart.on-page_reference;fillColor=none;labelPosition=center;align=center;" vertex="1" parent="1">
          <mxGeometry x="126.9299999999999" y="1910" width="40" height="40" as="geometry" />
        </mxCell>
        <mxCell id="Vj9ajFiq0jx15E2-Rn8_-3" value="&lt;font style=&quot;font-size: 11px;&quot;&gt;&lt;br&gt;&lt;span style=&quot;color: rgb(0, 0, 0); font-family: Consolas, &amp;quot;Courier New&amp;quot;, monospace; font-style: normal; font-variant-ligatures: normal; font-variant-caps: normal; font-weight: 400; letter-spacing: normal; orphans: 2; text-align: center; text-indent: 0px; text-transform: none; widows: 2; word-spacing: 0px; -webkit-text-stroke-width: 0px; text-decoration-thickness: initial; text-decoration-style: initial; text-decoration-color: initial; float: none; display: inline !important;&quot;&gt;True&lt;/span&gt;&lt;br&gt;&lt;/font&gt;" style="edgeStyle=orthogonalEdgeStyle;rounded=0;orthogonalLoop=1;jettySize=auto;html=1;entryX=0.5;entryY=0;entryDx=0;entryDy=0;fontColor=default;exitX=0;exitY=0.5;exitDx=0;exitDy=0;labelBackgroundColor=none;" edge="1" parent="1" source="Vj9ajFiq0jx15E2-Rn8_-5" target="Vj9ajFiq0jx15E2-Rn8_-7">
          <mxGeometry x="-0.7438" y="-15" relative="1" as="geometry">
            <mxPoint as="offset" />
          </mxGeometry>
        </mxCell>
        <mxCell id="Vj9ajFiq0jx15E2-Rn8_-4" value="&lt;br&gt;False&lt;br&gt;" style="edgeStyle=orthogonalEdgeStyle;rounded=0;orthogonalLoop=1;jettySize=auto;html=1;entryX=1;entryY=0.5;entryDx=0;entryDy=0;fontColor=default;exitX=1;exitY=0.5;exitDx=0;exitDy=0;labelBackgroundColor=none;" edge="1" parent="1" source="Vj9ajFiq0jx15E2-Rn8_-5" target="Vj9ajFiq0jx15E2-Rn8_-8">
          <mxGeometry x="-0.8338" y="15" relative="1" as="geometry">
            <mxPoint as="offset" />
          </mxGeometry>
        </mxCell>
        <mxCell id="Vj9ajFiq0jx15E2-Rn8_-5" value="&lt;div style=&quot;font-family: Consolas, &amp;quot;Courier New&amp;quot;, monospace; font-size: 14px; line-height: 19px;&quot;&gt;&lt;div style=&quot;line-height: 19px;&quot;&gt;y1&amp;lt;&lt;span style=&quot;&quot;&gt;0&lt;/span&gt;&amp;nbsp;&amp;amp;&amp;amp;&amp;nbsp;&lt;span style=&quot;&quot;&gt;y2&amp;gt;&lt;/span&gt;=&lt;span style=&quot;&quot;&gt;0&lt;/span&gt;&lt;/div&gt;&lt;/div&gt;" style="rhombus;whiteSpace=wrap;html=1;labelBackgroundColor=none;fontColor=default;fillColor=none;flipH=0;flipV=1;" vertex="1" parent="1">
          <mxGeometry x="560.89" y="880" width="150" height="70" as="geometry" />
        </mxCell>
        <mxCell id="Vj9ajFiq0jx15E2-Rn8_-6" style="edgeStyle=orthogonalEdgeStyle;rounded=0;orthogonalLoop=1;jettySize=auto;html=1;entryX=0;entryY=0.5;entryDx=0;entryDy=0;fontColor=default;exitX=0.5;exitY=1;exitDx=0;exitDy=0;" edge="1" parent="1" source="Vj9ajFiq0jx15E2-Rn8_-7" target="Vj9ajFiq0jx15E2-Rn8_-8">
          <mxGeometry relative="1" as="geometry" />
        </mxCell>
        <mxCell id="Vj9ajFiq0jx15E2-Rn8_-7" value="num_solution = 3" style="rounded=0;whiteSpace=wrap;html=1;labelBackgroundColor=none;fontColor=default;fillColor=none;" vertex="1" parent="1">
          <mxGeometry x="490.89" y="960" width="100" height="30" as="geometry" />
        </mxCell>
        <mxCell id="Vj9ajFiq0jx15E2-Rn8_-57" style="edgeStyle=orthogonalEdgeStyle;rounded=0;orthogonalLoop=1;jettySize=auto;html=1;exitX=0.5;exitY=1;exitDx=0;exitDy=0;entryX=0.5;entryY=0;entryDx=0;entryDy=0;entryPerimeter=0;labelBackgroundColor=none;" edge="1" parent="1" source="Vj9ajFiq0jx15E2-Rn8_-8" target="Vj9ajFiq0jx15E2-Rn8_-54">
          <mxGeometry relative="1" as="geometry" />
        </mxCell>
        <mxCell id="Vj9ajFiq0jx15E2-Rn8_-8" value="" style="ellipse;whiteSpace=wrap;html=1;aspect=fixed;labelBackgroundColor=none;fontColor=default;fillColor=none;" vertex="1" parent="1">
          <mxGeometry x="630.89" y="1010" width="10" height="10" as="geometry" />
        </mxCell>
        <mxCell id="Vj9ajFiq0jx15E2-Rn8_-13" value="&lt;font style=&quot;font-size: 11px;&quot;&gt;&lt;br&gt;&lt;span style=&quot;color: rgb(0, 0, 0); font-family: Consolas, &amp;quot;Courier New&amp;quot;, monospace; font-style: normal; font-variant-ligatures: normal; font-variant-caps: normal; font-weight: 400; letter-spacing: normal; orphans: 2; text-align: center; text-indent: 0px; text-transform: none; widows: 2; word-spacing: 0px; -webkit-text-stroke-width: 0px; text-decoration-thickness: initial; text-decoration-style: initial; text-decoration-color: initial; float: none; display: inline !important;&quot;&gt;True&lt;/span&gt;&lt;br&gt;&lt;/font&gt;" style="edgeStyle=orthogonalEdgeStyle;rounded=0;orthogonalLoop=1;jettySize=auto;html=1;entryX=0.5;entryY=0;entryDx=0;entryDy=0;fontColor=default;exitX=0;exitY=0.5;exitDx=0;exitDy=0;labelBackgroundColor=none;" edge="1" parent="1" source="Vj9ajFiq0jx15E2-Rn8_-15" target="Vj9ajFiq0jx15E2-Rn8_-17">
          <mxGeometry x="-0.604" y="-15" relative="1" as="geometry">
            <mxPoint as="offset" />
          </mxGeometry>
        </mxCell>
        <mxCell id="Vj9ajFiq0jx15E2-Rn8_-14" value="&lt;br&gt;False&lt;br&gt;" style="edgeStyle=orthogonalEdgeStyle;rounded=0;orthogonalLoop=1;jettySize=auto;html=1;entryX=1;entryY=0.5;entryDx=0;entryDy=0;fontColor=default;exitX=1;exitY=0.5;exitDx=0;exitDy=0;labelBackgroundColor=none;" edge="1" parent="1" source="Vj9ajFiq0jx15E2-Rn8_-15" target="Vj9ajFiq0jx15E2-Rn8_-18">
          <mxGeometry x="-0.8089" y="15" relative="1" as="geometry">
            <mxPoint as="offset" />
          </mxGeometry>
        </mxCell>
        <mxCell id="Vj9ajFiq0jx15E2-Rn8_-15" value="&lt;div style=&quot;font-family: Consolas, &amp;quot;Courier New&amp;quot;, monospace; font-size: 14px; line-height: 19px;&quot;&gt;&lt;div style=&quot;line-height: 19px;&quot;&gt;y1&amp;gt;=&lt;span style=&quot;&quot;&gt;0&lt;/span&gt;&amp;nbsp;&amp;amp;&amp;amp;&amp;nbsp;&lt;span style=&quot;&quot;&gt;y2&amp;lt;&lt;/span&gt;&lt;span style=&quot;&quot;&gt;0&lt;/span&gt;&lt;/div&gt;&lt;/div&gt;" style="rhombus;whiteSpace=wrap;html=1;labelBackgroundColor=none;fontColor=default;fillColor=none;flipH=0;flipV=1;" vertex="1" parent="1">
          <mxGeometry x="560.89" y="730" width="150" height="70" as="geometry" />
        </mxCell>
        <mxCell id="Vj9ajFiq0jx15E2-Rn8_-16" style="edgeStyle=orthogonalEdgeStyle;rounded=0;orthogonalLoop=1;jettySize=auto;html=1;entryX=0;entryY=0.5;entryDx=0;entryDy=0;fontColor=default;exitX=0.5;exitY=1;exitDx=0;exitDy=0;" edge="1" parent="1" source="Vj9ajFiq0jx15E2-Rn8_-17" target="Vj9ajFiq0jx15E2-Rn8_-18">
          <mxGeometry relative="1" as="geometry" />
        </mxCell>
        <mxCell id="Vj9ajFiq0jx15E2-Rn8_-17" value="num_solution = 3" style="rounded=0;whiteSpace=wrap;html=1;labelBackgroundColor=none;fontColor=default;fillColor=none;" vertex="1" parent="1">
          <mxGeometry x="490.89" y="800" width="100" height="30" as="geometry" />
        </mxCell>
        <mxCell id="Vj9ajFiq0jx15E2-Rn8_-51" style="edgeStyle=orthogonalEdgeStyle;rounded=0;orthogonalLoop=1;jettySize=auto;html=1;exitX=0.5;exitY=1;exitDx=0;exitDy=0;entryX=0.5;entryY=0;entryDx=0;entryDy=0;labelBackgroundColor=none;" edge="1" parent="1" source="Vj9ajFiq0jx15E2-Rn8_-18" target="Vj9ajFiq0jx15E2-Rn8_-5">
          <mxGeometry relative="1" as="geometry" />
        </mxCell>
        <mxCell id="Vj9ajFiq0jx15E2-Rn8_-18" value="" style="ellipse;whiteSpace=wrap;html=1;aspect=fixed;labelBackgroundColor=none;fontColor=default;fillColor=none;" vertex="1" parent="1">
          <mxGeometry x="630.89" y="850" width="10" height="10" as="geometry" />
        </mxCell>
        <mxCell id="Vj9ajFiq0jx15E2-Rn8_-19" value="&lt;font style=&quot;font-size: 11px;&quot;&gt;&lt;br&gt;&lt;span style=&quot;color: rgb(0, 0, 0); font-family: Consolas, &amp;quot;Courier New&amp;quot;, monospace; font-style: normal; font-variant-ligatures: normal; font-variant-caps: normal; font-weight: 400; letter-spacing: normal; orphans: 2; text-align: center; text-indent: 0px; text-transform: none; widows: 2; word-spacing: 0px; -webkit-text-stroke-width: 0px; text-decoration-thickness: initial; text-decoration-style: initial; text-decoration-color: initial; float: none; display: inline !important;&quot;&gt;True&lt;/span&gt;&lt;br&gt;&lt;/font&gt;" style="edgeStyle=orthogonalEdgeStyle;rounded=0;orthogonalLoop=1;jettySize=auto;html=1;entryX=0.5;entryY=0;entryDx=0;entryDy=0;fontColor=default;exitX=0;exitY=0.5;exitDx=0;exitDy=0;labelBackgroundColor=none;" edge="1" parent="1" source="Vj9ajFiq0jx15E2-Rn8_-21" target="Vj9ajFiq0jx15E2-Rn8_-44">
          <mxGeometry x="-0.4366" y="-15" relative="1" as="geometry">
            <mxPoint as="offset" />
            <mxPoint x="540.89" y="660" as="targetPoint" />
          </mxGeometry>
        </mxCell>
        <mxCell id="Vj9ajFiq0jx15E2-Rn8_-20" value="&lt;br&gt;False&lt;br&gt;" style="edgeStyle=orthogonalEdgeStyle;rounded=0;orthogonalLoop=1;jettySize=auto;html=1;entryX=1;entryY=0.5;entryDx=0;entryDy=0;fontColor=default;exitX=1;exitY=0.5;exitDx=0;exitDy=0;labelBackgroundColor=none;" edge="1" parent="1" source="Vj9ajFiq0jx15E2-Rn8_-21" target="Vj9ajFiq0jx15E2-Rn8_-24">
          <mxGeometry x="-0.8095" y="-15" relative="1" as="geometry">
            <mxPoint x="15" y="-15" as="offset" />
          </mxGeometry>
        </mxCell>
        <mxCell id="Vj9ajFiq0jx15E2-Rn8_-21" value="&lt;div style=&quot;font-family: Consolas, &amp;quot;Courier New&amp;quot;, monospace; font-size: 14px; line-height: 19px;&quot;&gt;&lt;div style=&quot;line-height: 19px;&quot;&gt;y1==&lt;span style=&quot;&quot;&gt;0&lt;/span&gt;&amp;nbsp;&amp;amp;&amp;amp;&amp;nbsp;&lt;span style=&quot;&quot;&gt;y2=&lt;/span&gt;=&lt;span style=&quot;&quot;&gt;0&lt;/span&gt;&lt;/div&gt;&lt;/div&gt;" style="rhombus;whiteSpace=wrap;html=1;labelBackgroundColor=none;fontColor=default;fillColor=none;flipH=0;flipV=1;" vertex="1" parent="1">
          <mxGeometry x="560.89" y="560" width="150" height="70" as="geometry" />
        </mxCell>
        <mxCell id="Vj9ajFiq0jx15E2-Rn8_-22" style="edgeStyle=orthogonalEdgeStyle;rounded=0;orthogonalLoop=1;jettySize=auto;html=1;entryX=0;entryY=0.5;entryDx=0;entryDy=0;fontColor=default;exitX=0.5;exitY=1;exitDx=0;exitDy=0;" edge="1" parent="1" source="Vj9ajFiq0jx15E2-Rn8_-44" target="Vj9ajFiq0jx15E2-Rn8_-24">
          <mxGeometry relative="1" as="geometry">
            <mxPoint x="540.89" y="690" as="sourcePoint" />
          </mxGeometry>
        </mxCell>
        <mxCell id="Vj9ajFiq0jx15E2-Rn8_-50" style="edgeStyle=orthogonalEdgeStyle;rounded=0;orthogonalLoop=1;jettySize=auto;html=1;exitX=0.5;exitY=1;exitDx=0;exitDy=0;entryX=0.5;entryY=0;entryDx=0;entryDy=0;labelBackgroundColor=none;" edge="1" parent="1" source="Vj9ajFiq0jx15E2-Rn8_-24" target="Vj9ajFiq0jx15E2-Rn8_-15">
          <mxGeometry relative="1" as="geometry" />
        </mxCell>
        <mxCell id="Vj9ajFiq0jx15E2-Rn8_-24" value="" style="ellipse;whiteSpace=wrap;html=1;aspect=fixed;labelBackgroundColor=none;fontColor=default;fillColor=none;" vertex="1" parent="1">
          <mxGeometry x="630.89" y="690" width="10" height="10" as="geometry" />
        </mxCell>
        <mxCell id="Vj9ajFiq0jx15E2-Rn8_-25" value="&lt;font style=&quot;font-size: 11px;&quot;&gt;&lt;br&gt;&lt;span style=&quot;color: rgb(0, 0, 0); font-family: Consolas, &amp;quot;Courier New&amp;quot;, monospace; font-style: normal; font-variant-ligatures: normal; font-variant-caps: normal; font-weight: 400; letter-spacing: normal; orphans: 2; text-align: center; text-indent: 0px; text-transform: none; widows: 2; word-spacing: 0px; -webkit-text-stroke-width: 0px; text-decoration-thickness: initial; text-decoration-style: initial; text-decoration-color: initial; float: none; display: inline !important;&quot;&gt;True&lt;/span&gt;&lt;br&gt;&lt;/font&gt;" style="edgeStyle=orthogonalEdgeStyle;rounded=0;orthogonalLoop=1;jettySize=auto;html=1;entryX=0.5;entryY=0;entryDx=0;entryDy=0;fontColor=default;exitX=0;exitY=0.5;exitDx=0;exitDy=0;labelBackgroundColor=none;" edge="1" parent="1" source="Vj9ajFiq0jx15E2-Rn8_-27" target="Vj9ajFiq0jx15E2-Rn8_-29">
          <mxGeometry x="-0.2731" y="-15" relative="1" as="geometry">
            <mxPoint x="14" y="-15" as="offset" />
          </mxGeometry>
        </mxCell>
        <mxCell id="Vj9ajFiq0jx15E2-Rn8_-26" value="&lt;br&gt;False&lt;br&gt;" style="edgeStyle=orthogonalEdgeStyle;rounded=0;orthogonalLoop=1;jettySize=auto;html=1;entryX=1;entryY=0.5;entryDx=0;entryDy=0;fontColor=default;exitX=1;exitY=0.5;exitDx=0;exitDy=0;labelBackgroundColor=none;" edge="1" parent="1" source="Vj9ajFiq0jx15E2-Rn8_-27" target="Vj9ajFiq0jx15E2-Rn8_-30">
          <mxGeometry x="-0.8089" y="15" relative="1" as="geometry">
            <mxPoint as="offset" />
          </mxGeometry>
        </mxCell>
        <mxCell id="Vj9ajFiq0jx15E2-Rn8_-27" value="&lt;div style=&quot;font-family: Consolas, &amp;quot;Courier New&amp;quot;, monospace; font-size: 14px; line-height: 19px;&quot;&gt;&lt;div style=&quot;line-height: 19px;&quot;&gt;y1==&lt;span style=&quot;&quot;&gt;0&lt;/span&gt;&amp;nbsp;||&amp;nbsp;&lt;span style=&quot;&quot;&gt;y2=&lt;/span&gt;=&lt;span style=&quot;&quot;&gt;0&lt;/span&gt;&lt;/div&gt;&lt;/div&gt;" style="rhombus;whiteSpace=wrap;html=1;labelBackgroundColor=none;fontColor=default;fillColor=none;flipH=0;flipV=1;" vertex="1" parent="1">
          <mxGeometry x="560.89" y="400" width="150" height="70" as="geometry" />
        </mxCell>
        <mxCell id="Vj9ajFiq0jx15E2-Rn8_-28" style="edgeStyle=orthogonalEdgeStyle;rounded=0;orthogonalLoop=1;jettySize=auto;html=1;entryX=0;entryY=0.5;entryDx=0;entryDy=0;fontColor=default;exitX=0.5;exitY=1;exitDx=0;exitDy=0;" edge="1" parent="1" source="Vj9ajFiq0jx15E2-Rn8_-29" target="Vj9ajFiq0jx15E2-Rn8_-30">
          <mxGeometry relative="1" as="geometry" />
        </mxCell>
        <mxCell id="Vj9ajFiq0jx15E2-Rn8_-29" value="num_solution = 2" style="rounded=0;whiteSpace=wrap;html=1;labelBackgroundColor=none;fontColor=default;fillColor=none;" vertex="1" parent="1">
          <mxGeometry x="490.89" y="470" width="100" height="30" as="geometry" />
        </mxCell>
        <mxCell id="Vj9ajFiq0jx15E2-Rn8_-49" style="edgeStyle=orthogonalEdgeStyle;rounded=0;orthogonalLoop=1;jettySize=auto;html=1;exitX=0.5;exitY=1;exitDx=0;exitDy=0;entryX=0.5;entryY=0;entryDx=0;entryDy=0;labelBackgroundColor=none;" edge="1" parent="1" source="Vj9ajFiq0jx15E2-Rn8_-30" target="Vj9ajFiq0jx15E2-Rn8_-21">
          <mxGeometry relative="1" as="geometry" />
        </mxCell>
        <mxCell id="Vj9ajFiq0jx15E2-Rn8_-30" value="" style="ellipse;whiteSpace=wrap;html=1;aspect=fixed;labelBackgroundColor=none;fontColor=default;fillColor=none;" vertex="1" parent="1">
          <mxGeometry x="630.89" y="520" width="10" height="10" as="geometry" />
        </mxCell>
        <mxCell id="Vj9ajFiq0jx15E2-Rn8_-31" value="&lt;font style=&quot;font-size: 11px;&quot;&gt;&lt;br&gt;&lt;span style=&quot;color: rgb(0, 0, 0); font-family: Consolas, &amp;quot;Courier New&amp;quot;, monospace; font-style: normal; font-variant-ligatures: normal; font-variant-caps: normal; font-weight: 400; letter-spacing: normal; orphans: 2; text-align: center; text-indent: 0px; text-transform: none; widows: 2; word-spacing: 0px; -webkit-text-stroke-width: 0px; text-decoration-thickness: initial; text-decoration-style: initial; text-decoration-color: initial; float: none; display: inline !important;&quot;&gt;True&lt;/span&gt;&lt;br&gt;&lt;/font&gt;" style="edgeStyle=orthogonalEdgeStyle;rounded=0;orthogonalLoop=1;jettySize=auto;html=1;entryX=0.5;entryY=0;entryDx=0;entryDy=0;fontColor=default;exitX=0;exitY=0.5;exitDx=0;exitDy=0;labelBackgroundColor=none;" edge="1" parent="1" source="Vj9ajFiq0jx15E2-Rn8_-33" target="Vj9ajFiq0jx15E2-Rn8_-35">
          <mxGeometry x="-0.2726" y="-15" relative="1" as="geometry">
            <mxPoint x="14" y="-15" as="offset" />
          </mxGeometry>
        </mxCell>
        <mxCell id="Vj9ajFiq0jx15E2-Rn8_-32" value="&lt;br&gt;False&lt;br&gt;" style="edgeStyle=orthogonalEdgeStyle;rounded=0;orthogonalLoop=1;jettySize=auto;html=1;entryX=1;entryY=0.5;entryDx=0;entryDy=0;fontColor=default;exitX=1;exitY=0.5;exitDx=0;exitDy=0;labelBackgroundColor=none;" edge="1" parent="1" source="Vj9ajFiq0jx15E2-Rn8_-33" target="Vj9ajFiq0jx15E2-Rn8_-36">
          <mxGeometry x="-0.8" y="14" relative="1" as="geometry">
            <mxPoint as="offset" />
          </mxGeometry>
        </mxCell>
        <mxCell id="Vj9ajFiq0jx15E2-Rn8_-33" value="&lt;div style=&quot;font-family: Consolas, &amp;quot;Courier New&amp;quot;, monospace; font-size: 14px; line-height: 19px;&quot;&gt;&lt;div style=&quot;line-height: 19px;&quot;&gt;y1&amp;lt;&lt;span style=&quot;&quot;&gt;0&lt;/span&gt;&amp;nbsp;&amp;amp;&amp;amp;&amp;nbsp;&lt;span style=&quot;&quot;&gt;y2=&lt;/span&gt;=&lt;span style=&quot;&quot;&gt;0&lt;/span&gt;&lt;/div&gt;&lt;/div&gt;" style="rhombus;whiteSpace=wrap;html=1;labelBackgroundColor=none;fontColor=default;fillColor=none;flipH=0;flipV=1;" vertex="1" parent="1">
          <mxGeometry x="560.89" y="240" width="150" height="70" as="geometry" />
        </mxCell>
        <mxCell id="Vj9ajFiq0jx15E2-Rn8_-34" style="edgeStyle=orthogonalEdgeStyle;rounded=0;orthogonalLoop=1;jettySize=auto;html=1;entryX=0;entryY=0.5;entryDx=0;entryDy=0;fontColor=default;exitX=0.5;exitY=1;exitDx=0;exitDy=0;" edge="1" parent="1" source="Vj9ajFiq0jx15E2-Rn8_-35" target="Vj9ajFiq0jx15E2-Rn8_-36">
          <mxGeometry relative="1" as="geometry" />
        </mxCell>
        <mxCell id="Vj9ajFiq0jx15E2-Rn8_-35" value="num_solution = 1" style="rounded=0;whiteSpace=wrap;html=1;labelBackgroundColor=none;fontColor=default;fillColor=none;" vertex="1" parent="1">
          <mxGeometry x="490.89" y="310" width="100" height="30" as="geometry" />
        </mxCell>
        <mxCell id="Vj9ajFiq0jx15E2-Rn8_-48" style="edgeStyle=orthogonalEdgeStyle;rounded=0;orthogonalLoop=1;jettySize=auto;html=1;exitX=0.5;exitY=1;exitDx=0;exitDy=0;entryX=0.5;entryY=0;entryDx=0;entryDy=0;labelBackgroundColor=none;" edge="1" parent="1" source="Vj9ajFiq0jx15E2-Rn8_-36" target="Vj9ajFiq0jx15E2-Rn8_-27">
          <mxGeometry relative="1" as="geometry" />
        </mxCell>
        <mxCell id="Vj9ajFiq0jx15E2-Rn8_-36" value="" style="ellipse;whiteSpace=wrap;html=1;aspect=fixed;labelBackgroundColor=none;fontColor=default;fillColor=none;" vertex="1" parent="1">
          <mxGeometry x="630.89" y="360" width="10" height="10" as="geometry" />
        </mxCell>
        <mxCell id="Vj9ajFiq0jx15E2-Rn8_-37" value="&lt;font style=&quot;font-size: 11px;&quot;&gt;&lt;br&gt;&lt;span style=&quot;color: rgb(0, 0, 0); font-family: Consolas, &amp;quot;Courier New&amp;quot;, monospace; font-style: normal; font-variant-ligatures: normal; font-variant-caps: normal; font-weight: 400; letter-spacing: normal; orphans: 2; text-align: center; text-indent: 0px; text-transform: none; widows: 2; word-spacing: 0px; -webkit-text-stroke-width: 0px; text-decoration-thickness: initial; text-decoration-style: initial; text-decoration-color: initial; float: none; display: inline !important;&quot;&gt;True&lt;/span&gt;&lt;br&gt;&lt;/font&gt;" style="edgeStyle=orthogonalEdgeStyle;rounded=0;orthogonalLoop=1;jettySize=auto;html=1;entryX=0.5;entryY=0;entryDx=0;entryDy=0;fontColor=default;exitX=0;exitY=0.5;exitDx=0;exitDy=0;labelBackgroundColor=none;" edge="1" parent="1" source="Vj9ajFiq0jx15E2-Rn8_-39" target="Vj9ajFiq0jx15E2-Rn8_-41">
          <mxGeometry x="-0.516" y="-15" relative="1" as="geometry">
            <mxPoint as="offset" />
          </mxGeometry>
        </mxCell>
        <mxCell id="Vj9ajFiq0jx15E2-Rn8_-38" value="&lt;br&gt;False&lt;br&gt;" style="edgeStyle=orthogonalEdgeStyle;rounded=0;orthogonalLoop=1;jettySize=auto;html=1;entryX=1;entryY=0.5;entryDx=0;entryDy=0;fontColor=default;exitX=1;exitY=0.5;exitDx=0;exitDy=0;labelBackgroundColor=none;" edge="1" parent="1" source="Vj9ajFiq0jx15E2-Rn8_-39" target="Vj9ajFiq0jx15E2-Rn8_-42">
          <mxGeometry x="-0.9041" y="15" relative="1" as="geometry">
            <mxPoint as="offset" />
          </mxGeometry>
        </mxCell>
        <mxCell id="Vj9ajFiq0jx15E2-Rn8_-39" value="&lt;div style=&quot;font-family: Consolas, &amp;quot;Courier New&amp;quot;, monospace; font-size: 14px; line-height: 19px;&quot;&gt;&lt;div style=&quot;line-height: 19px;&quot;&gt;y1&amp;gt;=&lt;span style=&quot;&quot;&gt;0&lt;/span&gt;&amp;nbsp;&amp;amp;&amp;amp;&amp;nbsp;&lt;span style=&quot;&quot;&gt;y2&amp;gt;&lt;/span&gt;=&lt;span style=&quot;&quot;&gt;0&lt;/span&gt;&lt;/div&gt;&lt;/div&gt;" style="rhombus;whiteSpace=wrap;html=1;labelBackgroundColor=none;fontColor=default;fillColor=none;flipH=0;flipV=1;" vertex="1" parent="1">
          <mxGeometry x="560.89" y="90" width="150" height="70" as="geometry" />
        </mxCell>
        <mxCell id="Vj9ajFiq0jx15E2-Rn8_-40" style="edgeStyle=orthogonalEdgeStyle;rounded=0;orthogonalLoop=1;jettySize=auto;html=1;entryX=0;entryY=0.5;entryDx=0;entryDy=0;fontColor=default;exitX=0.5;exitY=1;exitDx=0;exitDy=0;" edge="1" parent="1" source="Vj9ajFiq0jx15E2-Rn8_-41" target="Vj9ajFiq0jx15E2-Rn8_-42">
          <mxGeometry relative="1" as="geometry" />
        </mxCell>
        <mxCell id="Vj9ajFiq0jx15E2-Rn8_-41" value="num_solution = 1" style="rounded=0;whiteSpace=wrap;html=1;labelBackgroundColor=none;fontColor=default;fillColor=none;" vertex="1" parent="1">
          <mxGeometry x="490.89" y="150" width="100" height="30" as="geometry" />
        </mxCell>
        <mxCell id="Vj9ajFiq0jx15E2-Rn8_-46" style="edgeStyle=orthogonalEdgeStyle;rounded=0;orthogonalLoop=1;jettySize=auto;html=1;exitX=0.5;exitY=1;exitDx=0;exitDy=0;entryX=0.5;entryY=0;entryDx=0;entryDy=0;labelBackgroundColor=none;" edge="1" parent="1" source="Vj9ajFiq0jx15E2-Rn8_-42" target="Vj9ajFiq0jx15E2-Rn8_-33">
          <mxGeometry relative="1" as="geometry" />
        </mxCell>
        <mxCell id="Vj9ajFiq0jx15E2-Rn8_-42" value="" style="ellipse;whiteSpace=wrap;html=1;aspect=fixed;labelBackgroundColor=none;fontColor=default;fillColor=none;" vertex="1" parent="1">
          <mxGeometry x="630.89" y="200" width="10" height="10" as="geometry" />
        </mxCell>
        <mxCell id="Vj9ajFiq0jx15E2-Rn8_-44" value="output &quot;Precision error&quot;" style="shape=parallelogram;perimeter=parallelogramPerimeter;whiteSpace=wrap;html=1;fixedSize=1;labelBackgroundColor=none;fontColor=default;fillColor=none;" vertex="1" parent="1">
          <mxGeometry x="459.78" y="640" width="150.22" height="30" as="geometry" />
        </mxCell>
        <mxCell id="Vj9ajFiq0jx15E2-Rn8_-55" style="edgeStyle=orthogonalEdgeStyle;rounded=0;orthogonalLoop=1;jettySize=auto;html=1;exitX=0.5;exitY=1;exitDx=0;exitDy=0;exitPerimeter=0;entryX=0.5;entryY=0;entryDx=0;entryDy=0;labelBackgroundColor=none;" edge="1" parent="1" source="Vj9ajFiq0jx15E2-Rn8_-53" target="Vj9ajFiq0jx15E2-Rn8_-39">
          <mxGeometry relative="1" as="geometry" />
        </mxCell>
        <mxCell id="Vj9ajFiq0jx15E2-Rn8_-53" value="A" style="verticalLabelPosition=middle;verticalAlign=middle;html=1;shape=mxgraph.flowchart.on-page_reference;fillColor=none;labelPosition=center;align=center;" vertex="1" parent="1">
          <mxGeometry x="615.89" y="30" width="40" height="40" as="geometry" />
        </mxCell>
        <mxCell id="Vj9ajFiq0jx15E2-Rn8_-54" value="B" style="verticalLabelPosition=middle;verticalAlign=middle;html=1;shape=mxgraph.flowchart.on-page_reference;fillColor=none;labelPosition=center;align=center;" vertex="1" parent="1">
          <mxGeometry x="615.89" y="1060" width="40" height="40" as="geometry" />
        </mxCell>
        <mxCell id="Vj9ajFiq0jx15E2-Rn8_-62" style="edgeStyle=orthogonalEdgeStyle;rounded=0;orthogonalLoop=1;jettySize=auto;html=1;exitX=0.5;exitY=1;exitDx=0;exitDy=0;entryX=0.5;entryY=0;entryDx=0;entryDy=0;labelBackgroundColor=none;" edge="1" parent="1" source="Vj9ajFiq0jx15E2-Rn8_-58" target="Vj9ajFiq0jx15E2-Rn8_-61">
          <mxGeometry relative="1" as="geometry" />
        </mxCell>
        <mxCell id="Vj9ajFiq0jx15E2-Rn8_-58" value="output num_solution" style="shape=parallelogram;perimeter=parallelogramPerimeter;whiteSpace=wrap;html=1;fixedSize=1;labelBackgroundColor=none;fontColor=default;fillColor=none;" vertex="1" parent="1">
          <mxGeometry x="103.5" y="1000" width="148" height="30" as="geometry" />
        </mxCell>
        <mxCell id="Vj9ajFiq0jx15E2-Rn8_-61" value="1" style="verticalLabelPosition=middle;verticalAlign=top;html=1;shape=offPageConnector;rounded=0;size=0.5;fillColor=none;labelPosition=center;align=center;" vertex="1" parent="1">
          <mxGeometry x="155" y="1070" width="45" height="30" as="geometry" />
        </mxCell>
        <mxCell id="Vj9ajFiq0jx15E2-Rn8_-63" value="1" style="verticalLabelPosition=middle;verticalAlign=top;html=1;shape=offPageConnector;rounded=0;size=0.5;fillColor=none;labelPosition=center;align=center;" vertex="1" parent="1">
          <mxGeometry x="203.4" y="1250" width="45" height="30" as="geometry" />
        </mxCell>
        <mxCell id="Vj9ajFiq0jx15E2-Rn8_-65" style="edgeStyle=orthogonalEdgeStyle;rounded=0;orthogonalLoop=1;jettySize=auto;html=1;exitX=0.5;exitY=1;exitDx=0;exitDy=0;entryX=0.5;entryY=0;entryDx=0;entryDy=0;labelBackgroundColor=none;" edge="1" parent="1" source="Vj9ajFiq0jx15E2-Rn8_-64" target="lqvLUBd4j2oRdTS4v0ID-142">
          <mxGeometry relative="1" as="geometry" />
        </mxCell>
        <mxCell id="Vj9ajFiq0jx15E2-Rn8_-64" value="r = -1" style="rounded=0;whiteSpace=wrap;html=1;labelBackgroundColor=none;fontColor=default;fillColor=none;" vertex="1" parent="1">
          <mxGeometry x="124.43" y="1623" width="45" height="25" as="geometry" />
        </mxCell>
        <mxCell id="Vj9ajFiq0jx15E2-Rn8_-79" style="edgeStyle=orthogonalEdgeStyle;rounded=0;orthogonalLoop=1;jettySize=auto;html=1;exitX=0.5;exitY=1;exitDx=0;exitDy=0;entryX=0.5;entryY=0;entryDx=0;entryDy=0;labelBackgroundColor=none;" edge="1" parent="1" source="Vj9ajFiq0jx15E2-Rn8_-67" target="Vj9ajFiq0jx15E2-Rn8_-68">
          <mxGeometry relative="1" as="geometry" />
        </mxCell>
        <mxCell id="Vj9ajFiq0jx15E2-Rn8_-67" value="stop = false" style="rounded=0;whiteSpace=wrap;html=1;labelBackgroundColor=none;fontColor=default;fillColor=none;" vertex="1" parent="1">
          <mxGeometry x="484.21" y="1370" width="75.04" height="25" as="geometry" />
        </mxCell>
        <mxCell id="Vj9ajFiq0jx15E2-Rn8_-69" value="True" style="edgeStyle=orthogonalEdgeStyle;rounded=0;orthogonalLoop=1;jettySize=auto;html=1;exitX=0.5;exitY=1;exitDx=0;exitDy=0;entryX=0.5;entryY=0;entryDx=0;entryDy=0;labelBackgroundColor=none;" edge="1" parent="1" source="Vj9ajFiq0jx15E2-Rn8_-68" target="lqvLUBd4j2oRdTS4v0ID-111">
          <mxGeometry x="-0.1429" y="19" relative="1" as="geometry">
            <mxPoint as="offset" />
          </mxGeometry>
        </mxCell>
        <mxCell id="Vj9ajFiq0jx15E2-Rn8_-84" value="False" style="edgeStyle=orthogonalEdgeStyle;rounded=0;orthogonalLoop=1;jettySize=auto;html=1;exitX=1;exitY=0.5;exitDx=0;exitDy=0;labelBackgroundColor=none;entryX=0.5;entryY=0;entryDx=0;entryDy=0;" edge="1" parent="1" source="Vj9ajFiq0jx15E2-Rn8_-68" target="Vj9ajFiq0jx15E2-Rn8_-85">
          <mxGeometry x="-0.9618" y="12" relative="1" as="geometry">
            <mxPoint x="520" y="1950" as="targetPoint" />
            <Array as="points">
              <mxPoint x="800" y="1453" />
              <mxPoint x="800" y="1930" />
              <mxPoint x="522" y="1930" />
            </Array>
            <mxPoint as="offset" />
          </mxGeometry>
        </mxCell>
        <mxCell id="Vj9ajFiq0jx15E2-Rn8_-68" value="&lt;div style=&quot;font-family: Consolas, &amp;quot;Courier New&amp;quot;, monospace; font-size: 14px; line-height: 19px;&quot;&gt;!stop&lt;/div&gt;" style="rhombus;whiteSpace=wrap;html=1;fillColor=none;labelBackgroundColor=none;fontColor=default;" vertex="1" parent="1">
          <mxGeometry x="482.39" y="1430" width="78.22" height="45" as="geometry" />
        </mxCell>
        <mxCell id="Vj9ajFiq0jx15E2-Rn8_-73" style="edgeStyle=orthogonalEdgeStyle;rounded=0;orthogonalLoop=1;jettySize=auto;html=1;entryX=0.5;entryY=0;entryDx=0;entryDy=0;fontColor=default;" edge="1" parent="1" source="Vj9ajFiq0jx15E2-Rn8_-74" target="Vj9ajFiq0jx15E2-Rn8_-75">
          <mxGeometry relative="1" as="geometry" />
        </mxCell>
        <mxCell id="Vj9ajFiq0jx15E2-Rn8_-74" value="" style="ellipse;whiteSpace=wrap;html=1;aspect=fixed;labelBackgroundColor=none;fontColor=default;fillColor=none;" vertex="1" parent="1">
          <mxGeometry x="142.4" y="2040" width="10" height="10" as="geometry" />
        </mxCell>
        <mxCell id="Vj9ajFiq0jx15E2-Rn8_-75" value="END" style="ellipse;whiteSpace=wrap;html=1;labelBackgroundColor=none;fontColor=default;fillColor=none;" vertex="1" parent="1">
          <mxGeometry x="124.9" y="2080" width="45" height="30" as="geometry" />
        </mxCell>
        <mxCell id="Vj9ajFiq0jx15E2-Rn8_-82" style="edgeStyle=orthogonalEdgeStyle;rounded=0;orthogonalLoop=1;jettySize=auto;html=1;exitX=0.5;exitY=1;exitDx=0;exitDy=0;exitPerimeter=0;entryX=0.5;entryY=0;entryDx=0;entryDy=0;labelBackgroundColor=none;" edge="1" parent="1" source="Vj9ajFiq0jx15E2-Rn8_-80" target="Vj9ajFiq0jx15E2-Rn8_-74">
          <mxGeometry relative="1" as="geometry" />
        </mxCell>
        <mxCell id="Vj9ajFiq0jx15E2-Rn8_-80" value="D" style="verticalLabelPosition=middle;verticalAlign=middle;html=1;shape=mxgraph.flowchart.on-page_reference;fillColor=none;labelPosition=center;align=center;" vertex="1" parent="1">
          <mxGeometry x="126.9299999999999" y="1960" width="40" height="40" as="geometry" />
        </mxCell>
        <mxCell id="Vj9ajFiq0jx15E2-Rn8_-89" style="edgeStyle=orthogonalEdgeStyle;rounded=0;orthogonalLoop=1;jettySize=auto;html=1;exitX=0.5;exitY=1;exitDx=0;exitDy=0;entryX=0.5;entryY=0;entryDx=0;entryDy=0;entryPerimeter=0;labelBackgroundColor=none;" edge="1" parent="1" source="Vj9ajFiq0jx15E2-Rn8_-85" target="Vj9ajFiq0jx15E2-Rn8_-87">
          <mxGeometry relative="1" as="geometry" />
        </mxCell>
        <mxCell id="Vj9ajFiq0jx15E2-Rn8_-85" value="" style="ellipse;whiteSpace=wrap;html=1;aspect=fixed;labelBackgroundColor=none;fontColor=default;fillColor=none;" vertex="1" parent="1">
          <mxGeometry x="516.73" y="1950" width="10" height="10" as="geometry" />
        </mxCell>
        <mxCell id="Vj9ajFiq0jx15E2-Rn8_-88" style="edgeStyle=orthogonalEdgeStyle;rounded=0;orthogonalLoop=1;jettySize=auto;html=1;exitX=0.5;exitY=1;exitDx=0;exitDy=0;exitPerimeter=0;entryX=0.5;entryY=0;entryDx=0;entryDy=0;labelBackgroundColor=none;" edge="1" parent="1" source="Vj9ajFiq0jx15E2-Rn8_-86" target="Vj9ajFiq0jx15E2-Rn8_-67">
          <mxGeometry relative="1" as="geometry" />
        </mxCell>
        <mxCell id="Vj9ajFiq0jx15E2-Rn8_-86" value="C" style="verticalLabelPosition=middle;verticalAlign=middle;html=1;shape=mxgraph.flowchart.on-page_reference;fillColor=none;labelPosition=center;align=center;" vertex="1" parent="1">
          <mxGeometry x="501.7299999999999" y="1300" width="40" height="40" as="geometry" />
        </mxCell>
        <mxCell id="Vj9ajFiq0jx15E2-Rn8_-87" value="D" style="verticalLabelPosition=middle;verticalAlign=middle;html=1;shape=mxgraph.flowchart.on-page_reference;fillColor=none;labelPosition=center;align=center;" vertex="1" parent="1">
          <mxGeometry x="501.7299999999999" y="1990" width="40" height="40" as="geometry" />
        </mxCell>
        <mxCell id="Vj9ajFiq0jx15E2-Rn8_-91" value="END" style="ellipse;whiteSpace=wrap;html=1;fillColor=none;" vertex="1" parent="1">
          <mxGeometry x="232.88" y="440" width="47.25" height="30" as="geometry" />
        </mxCell>
      </root>
    </mxGraphModel>
  </diagram>
</mxfile>
